Coordinates
version=1
nRows=16
nColumns=36
inDegrees=yes

Units are S.I. units (second, meters, Newtons, ...)
If the header above contains a line with 'inDegrees', this indicates whether rotational values are in degrees (yes) or radians (no).

endheader
time	pelvis_tilt	pelvis_list	pelvis_rotation	pelvis_tx	pelvis_ty	pelvis_tz	hip_flexion_r	hip_adduction_r	hip_rotation_r	knee_angle_r	knee_angle_r_beta	ankle_angle_r	subtalar_angle_r	mtp_angle_r	hip_flexion_l	hip_adduction_l	hip_rotation_l	knee_angle_l	knee_angle_l_beta	ankle_angle_l	subtalar_angle_l	mtp_angle_l	lumbar_extension	lumbar_bending	lumbar_rotation	arm_flex_r	arm_add_r	arm_rot_r	elbow_flex_r	pro_sup_r	arm_flex_l	arm_add_l	arm_rot_l	elbow_flex_l	pro_sup_l
      1.23333330	     -1.63269264	     -0.43729257	     19.03902197	     -0.42576411	      1.17233213	      0.07470701	      1.38181154	     -2.73694120	      1.30333494	      0.48960190	      0.00854517	      7.99449399	     -8.24266557	     -7.49999974	      1.79988656	      3.73701489	     -1.20497971	      1.23968808	      0.02163664	      7.90205523	      2.26239277	     -7.49999974	     -0.91700490	     -2.46666881	     -4.91394591	     -4.46066566	     -5.85283977	      0.74863608	     32.13411261	     85.20892504	     -2.11893784	    -10.20545644	     10.34473189	     32.66351175	     78.28647982
      1.25000000	     -1.55119551	     -0.49232908	     18.99276584	     -0.42494358	      1.17427692	      0.07404348	      1.50047732	     -2.54884322	      1.48782071	      0.73148561	      0.01276683	      7.95357110	     -8.49912187	     -7.49999975	      2.18131521	      3.61725529	     -1.26700279	      1.73645473	      0.03030685	      8.05591933	      2.19449349	     -7.49999975	     -1.76087372	     -2.36325251	     -5.02848708	     -4.04499756	     -6.09085230	      0.77687512	     31.75287762	     85.21691084	     -1.83343069	    -10.42120469	     10.52114803	     32.48161747	     78.32930353
      1.26666670	     -1.83813642	     -0.57000255	     18.78375937	     -0.42464430	      1.16743251	      0.07488097	      2.28860642	     -2.47964298	      1.67077339	      1.27927183	      0.02232751	      8.16512378	     -9.12260716	     -7.49999975	      3.05018904	      3.61756348	     -1.38716960	      2.56851002	      0.04482896	      8.55038491	      1.81328917	     -7.49999975	     -2.16130488	     -2.38623975	     -4.96962644	     -3.62180850	     -6.41131676	      1.43325069	     31.18185465	     83.92279278	     -1.43818833	    -10.90847238	     11.53127083	     32.38517310	     77.35233539
      1.28333330	     -2.30714786	     -0.65919931	     18.65655784	     -0.42402381	      1.16929521	      0.07452051	      3.42995853	     -2.49212095	      1.56585052	      2.45717150	      0.04288573	      8.55548311	     -9.68678503	     -7.49999978	      4.31519962	      3.66623483	     -1.20373936	      3.79331203	      0.06620578	      8.86539536	      1.26431914	     -7.49999978	     -2.48388901	     -2.45069271	     -5.06687274	     -3.38175752	     -6.73388341	      2.39073807	     30.83475257	     82.57121697	     -1.16693205	    -11.36004662	     13.19164888	     31.93476270	     76.25502631
      1.30000000	     -3.06119212	     -0.83020389	     18.48399884	     -0.42358379	      1.16802265	      0.07477314	      5.24394749	     -2.51830086	      1.56680001	      4.28136455	      0.07472391	      9.13146958	    -10.44834802	     -7.49999983	      6.18596493	      3.73251194	     -1.42319096	      5.66581554	      0.09888714	      9.61241159	      0.60089038	     -7.49999983	     -2.68900138	     -2.52966570	     -4.67630069	     -3.52993806	     -6.89690749	      1.47762329	     31.10363743	     85.05443149	     -1.00966023	    -11.77189317	     14.05294897	     32.10240844	     77.34721301
      1.31666670	     -3.82340333	     -0.98048695	     18.11806285	     -0.42317952	      1.16911694	      0.07483099	      7.38183627	     -2.54678102	      1.62740515	      6.82657805	      0.11914626	      9.96876323	    -10.90969129	     -7.49999984	      8.23282145	      3.76512598	     -1.26544295	      7.82562390	      0.13658290	      9.98532977	     -0.81861171	     -7.49999984	     -3.05918826	     -2.69019105	     -4.64671127	     -3.41656873	     -7.01689576	      1.68823459	     31.25036156	     82.70079096	     -1.20010660	    -12.12820089	     14.44281296	     32.53980765	     75.54063439
      1.33333330	     -5.05038302	     -1.42834006	     17.92490763	     -0.42282236	      1.16364570	      0.07552679	     10.45221334	     -2.38700826	      1.75691372	     10.23132659	      0.17857034	     10.60077743	    -11.69093226	     -7.49999984	     11.31387131	      3.64720906	     -1.31959175	     11.07828360	      0.19335252	     10.73370297	     -2.65687096	     -7.49999984	     -2.61417685	     -2.71067655	     -4.33763692	     -3.48475283	     -7.39538755	      2.92528478	     30.62754001	     82.55503814	     -1.21177377	    -12.66104059	     16.45664275	     32.64102483	     75.65917879
      1.35000000	     -6.14388497	     -1.73059275	     17.67004666	     -0.42252658	      1.16321039	      0.07556471	     13.61256056	     -2.38115781	      1.55201123	     14.03671857	      0.24498696	     11.86207196	    -12.22102792	     -7.49999984	     14.49419746	      3.61028150	     -1.31902087	     14.91381914	      0.26029525	     11.45204382	     -4.58254812	     -7.49999984	     -2.61275212	     -2.86340750	     -4.06421085	     -3.68557286	     -7.55418547	      2.84872984	     30.63168864	     82.85210601	     -1.35955731	    -12.99281981	     16.97832989	     33.20077473	     76.04924200
      1.36666670	     -7.23958717	     -2.14908642	     17.14717656	     -0.42310682	      1.15361188	      0.07692410	     17.19487118	     -2.29675292	      1.46014287	     18.35846093	      0.32041559	     13.33127720	    -13.04598907	     -7.49999985	     18.03058830	      3.39938829	     -1.25767052	     19.42725636	      0.33906959	     12.47805774	     -6.77926140	     -7.49999985	     -2.60554072	     -2.81109801	     -3.76301780	     -3.96359679	     -7.75961936	      2.80020316	     30.96729446	     83.30520245	     -1.43382371	    -13.46975661	     18.51988349	     33.76447056	     76.94037642
      1.38333330	     -8.20082946	     -2.53632568	     16.86923407	     -0.41621198	      1.15310703	      0.07255133	     20.43461291	     -2.30343591	      1.32333065	     22.82919021	      0.39844453	     14.78480022	    -13.91026458	     -7.49999985	     21.34761204	      3.28555171	     -1.13065295	     23.89851578	      0.41710779	     13.67282484	     -8.40430916	     -7.49999985	     -2.88494071	     -2.65743621	     -3.79549536	     -4.21981690	     -7.94306489	      2.54898291	     31.16388930	     83.44272827	     -1.93662639	    -13.62147607	     18.79058866	     34.52327166	     77.19962914
      1.40000000	     -8.88349949	     -2.75795784	     16.47256371	     -0.41615788	      1.14886297	      0.07309279	     23.02636872	     -2.37193779	      1.32218524	     26.66408712	      0.46537611	     16.44747136	    -14.57130434	     -7.49999985	     23.94682264	      3.36094775	     -0.62429590	     27.67651322	      0.48304628	     15.19334467	     -9.32268755	     -7.49999985	     -3.46304582	     -2.60754143	     -3.99973160	     -4.40930776	     -8.00527885	      2.42265685	     31.49474608	     82.12446087	     -2.62633124	    -13.79030672	     19.01062986	     35.44577319	     76.25208411
      1.41666670	     -9.54538095	     -3.02340504	     16.23462118	     -0.42265607	      1.14387856	      0.07754596	     25.61603184	     -2.30469267	      1.24595886	     30.20038583	      0.52709617	     18.25838136	    -14.96262830	     -7.49999986	     26.72487016	      3.43554133	     -0.05143959	     31.17322234	      0.54407537	     17.41679003	     -9.16893501	     -7.49999986	     -4.44980374	     -2.66264382	     -4.00647338	     -4.33523442	     -8.15311101	      2.77641296	     31.87606653	     82.48826988	     -2.74587589	    -14.11923701	     19.39268184	     36.33171607	     76.77361388
      1.43333330	    -10.41307564	     -3.12640227	     16.12232700	     -0.42922044	      1.13505556	      0.07536088	     28.47331700	     -2.57565710	      1.16654353	     33.93527993	      0.59228237	     19.55665436	    -15.50610534	     -7.49999986	     29.63682304	      3.79888989	      0.48536026	     34.40640668	      0.60050508	     19.67492655	     -9.06136929	     -7.49999986	     -5.63532337	     -2.92535080	     -4.23954331	     -4.06809796	     -8.40827256	      3.72317503	     32.47671021	     81.83533395	     -2.49443062	    -14.44206060	     20.20360048	     36.96463302	     77.29016954
      1.45000000	    -10.62746461	     -3.14155083	     16.02463009	     -0.41480812	      1.11701199	      0.07475584	     30.30862120	     -2.72879201	      0.95150150	     37.54250983	      0.65524041	     21.51608163	    -15.48473331	     -7.49999986	     31.50067400	      3.93748892	      0.96130296	     37.55090855	      0.65538699	     22.38179892	     -8.63462466	     -7.49999986	     -7.55052890	     -3.04666902	     -4.42091937	     -4.12787400	     -8.42731501	      3.19376088	     33.18190466	     84.18373567	     -2.75142623	    -14.38381511	     18.40033697	     38.54018946	     82.42413998
      1.46666670	    -11.07085019	     -3.13229860	     15.81585837	     -0.40804378	      1.09860270	      0.07181220	     32.55501843	     -3.03468564	      0.66466973	     41.89695559	      0.73123982	     24.34378641	    -14.76680147	     -7.49999986	     33.54764955	      4.10818439	      1.23980392	     40.86284757	      0.71319123	     25.52452224	     -7.49314840	     -7.49999986	     -8.87100206	     -3.15569026	     -4.38406563	     -4.35483650	     -8.59680646	      3.12159079	     34.09094150	     83.18023346	     -2.76281335	    -14.43082952	     18.27513489	     39.85190560	     81.64735579
      1.48333330	    -11.65766266	     -2.99434280	     15.51218107	     -0.40813714	      1.09576345	      0.07202234	     34.88941374	     -3.53115465	      0.47041401	     46.13307946	      0.80517413	     26.74345713	    -13.79978951	     -7.49999987	     35.34999214	      4.39721315	      1.43634283	     43.89736233	      0.76615351	     27.94037719	     -6.74423669	     -7.49999987	     -9.94722187	     -3.31158756	     -4.96974235	     -3.89190332	     -8.64815688	      3.67003983	     33.93208073	     82.81923629	     -3.00461832	    -14.36534607	     17.09205371	     40.79546375	     82.07917326
